<?xml version="1.0" encoding="UTF-8"?> <svg xmlns="http://www.w3.org/2000/svg" xmlns:xlink="http://www.w3.org/1999/xlink" width="72px" height="72px" viewBox="0 0 72 72" version="1.1"><title>Ic_fMint_2</title><g id="Page-1" stroke="none" stroke-width="1" fill="none" fill-rule="evenodd"><g id="DeFi" transform="translate(-97.000000, -1066.000000)"><g id="Ic_fMint_2" transform="translate(97.000000, 1066.000000)"><circle id="Oval" fill="#1969FF" fill-rule="nonzero" cx="35.957901" cy="35.9525037" r="35.946027"></circle><g id="Group-22" transform="translate(13.000000, 20.000000)"><g id="Group" transform="translate(13.940458, 9.375883)"><path d="M32.6416449,8.99714714 C32.6416449,8.99714714 32.6416449,15.9266652 32.6416449,16.1351553 C32.6416449,17.9548169 31.5079032,19.6350739 29.5821461,21.009381 C28.1868666,22.0049518 26.3807753,22.8364446 24.2798372,23.4323067 C22.6649647,23.9011009 20.8736774,24.2280231 18.9775284,24.3822317 C18.1164275,24.4599529 17.2281859,24.4969629 16.326374,24.4969629 C15.424562,24.4969629 14.5363204,24.4599529 13.6752195,24.3822317 C11.7790705,24.2267895 9.98778325,23.9011009 8.37291069,23.4323067 C6.27197259,22.8364446 4.46588135,22.0049518 3.07060184,21.009381 C1.14484472,19.6350739 0.0111030199,17.9548169 0.0111030199,16.1351553 C0.0111030199,15.9266652 0.0111030199,8.99714714 0.0111030199,8.99714714 L0.0555150996,8.99714714 C0.276341829,10.5799443 1.36073677,12.0393746 3.06936817,13.2594731 C4.46464768,14.2550439 6.27073892,15.0865367 8.37167702,15.6823988 C9.98654958,16.151193 11.7778368,16.4781152 13.6739859,16.6323238 C14.5350867,16.710045 15.4233283,16.747055 16.3251403,16.747055 C17.2269522,16.747055 18.1151938,16.710045 18.9762947,16.6323238 C20.8724438,16.4768816 22.663731,16.151193 24.2786036,15.6823988 C26.3795417,15.0865367 28.1856329,14.2550439 29.5809124,13.2594731 C31.2895438,12.0393746 32.3751724,10.5799443 32.5947655,8.99714714 L32.6416449,8.99714714 Z" id="Path" fill="#82D7FF" fill-rule="nonzero"></path><path d="M32.6416449,8.99714714 C32.6416449,8.99714714 32.6416449,15.9266652 32.6416449,16.1351553 C32.6416449,17.9548169 31.5079032,19.6350739 29.5821461,21.009381 C28.1868666,22.0049518 26.3807753,22.8364446 24.2798372,23.4323067 C22.6649647,23.9011009 20.8736774,24.2280231 18.9775284,24.3822317 C18.1164275,24.4599529 17.2281859,24.4969629 16.326374,24.4969629 C15.424562,24.4969629 14.5363204,24.4599529 13.6752195,24.3822317 C11.7790705,24.2267895 9.98778325,23.9011009 8.37291069,23.4323067 C6.27197259,22.8364446 4.46588135,22.0049518 3.07060184,21.009381 C1.14484472,19.6350739 0.0111030199,17.9548169 0.0111030199,16.1351553 C0.0111030199,15.9266652 0.0111030199,8.99714714 0.0111030199,8.99714714 L0.0555150996,8.99714714 C0.276341829,10.5799443 1.36073677,12.0393746 3.06936817,13.2594731 C4.46464768,14.2550439 6.27073892,15.0865367 8.37167702,15.6823988 C9.98654958,16.151193 11.7778368,16.4781152 13.6739859,16.6323238 C14.5350867,16.710045 15.4233283,16.747055 16.3251403,16.747055 C17.2269522,16.747055 18.1151938,16.710045 18.9762947,16.6323238 C20.8724438,16.4768816 22.663731,16.151193 24.2786036,15.6823988 C26.3795417,15.0865367 28.1856329,14.2550439 29.5809124,13.2594731 C31.2895438,12.0393746 32.3751724,10.5799443 32.5947655,8.99714714 L32.6416449,8.99714714 Z" id="Path" stroke="#1969FF" stroke-width="2.06556882"></path><path d="M32.6416449,8.38524738 C32.6416449,8.58880274 32.6256072,8.79359178 32.5972328,8.99714714 C32.3764061,10.5799443 31.2920111,12.0393746 29.5833797,13.2594731 C28.1881002,14.2550439 26.382009,15.0865367 24.2810709,15.6823988 C22.6661983,16.151193 20.8749111,16.4781152 18.978762,16.6323238 C18.1176612,16.710045 17.2294196,16.747055 16.3276076,16.747055 C15.4257957,16.747055 14.5375541,16.710045 13.6764532,16.6323238 C11.7803041,16.4768816 9.98901692,16.151193 8.37414436,15.6823988 C6.27320625,15.0865367 4.46711501,14.2550439 3.07183551,13.2594731 C1.36320411,12.0393746 0.277575498,10.5799443 0.0579824374,8.99714714 C0.0296080531,8.79359178 0.0135703577,8.58880274 0.0135703577,8.38524738 C0.0135703577,3.76762476 7.31935746,0.0234397087 16.3288413,0.0234397087 C25.3383251,0.0234397087 32.6416449,3.76762476 32.6416449,8.38524738 Z" id="Path" fill="#FFFFFF" fill-rule="nonzero"></path><path d="M32.6416449,8.38524738 C32.6416449,8.58880274 32.6256072,8.79359178 32.5972328,8.99714714 C32.3764061,10.5799443 31.2920111,12.0393746 29.5833797,13.2594731 C28.1881002,14.2550439 26.382009,15.0865367 24.2810709,15.6823988 C22.6661983,16.151193 20.8749111,16.4781152 18.978762,16.6323238 C18.1176612,16.710045 17.2294196,16.747055 16.3276076,16.747055 C15.4257957,16.747055 14.5375541,16.710045 13.6764532,16.6323238 C11.7803041,16.4768816 9.98901692,16.151193 8.37414436,15.6823988 C6.27320625,15.0865367 4.46711501,14.2550439 3.07183551,13.2594731 C1.36320411,12.0393746 0.277575498,10.5799443 0.0579824374,8.99714714 C0.0296080531,8.79359178 0.0135703577,8.58880274 0.0135703577,8.38524738 C0.0135703577,3.76762476 7.31935746,0.0234397087 16.3288413,0.0234397087 C25.3383251,0.0234397087 32.6416449,3.76762476 32.6416449,8.38524738 Z" id="Path" stroke="#1969FF" stroke-width="2.06556882"></path></g><g id="Group"><path d="M31.1365689,3.76885843 C31.1365689,3.76885843 34.4983166,10.1814693 34.5982437,10.3739216 C35.480317,12.056646 35.2459199,14.1625187 34.1319169,16.3683187 C33.3238638,17.9659199 32.0556522,19.6116342 30.4000685,21.1820947 C29.1330906,22.3997259 27.6341829,23.5704776 25.9539259,24.6339002 C25.1952195,25.1224331 24.3896338,25.5887599 23.5556736,26.0254787 C22.7217134,26.4621975 21.8803513,26.8594389 21.0476248,27.2060998 C19.2168601,27.9820775 17.4021332,28.5495652 15.6799315,28.8986935 C13.4469908,29.366254 11.3719597,29.4723495 9.59794389,29.2280831 C7.15034483,28.8900578 5.28503748,27.8846177 4.40296423,26.2018933 C4.30180338,26.009441 0.941289355,19.5968302 0.941289355,19.5968302 L0.983234097,19.5746241 C1.95413151,20.9316599 3.66646391,21.7569844 5.84018848,22.0567659 C7.61420433,22.3010323 9.68923538,22.1949368 11.9221761,21.7273763 C13.6443778,21.378248 15.4591047,20.811994 17.2898694,20.0347826 C18.1238295,19.6893553 18.963958,19.2921139 19.7979182,18.8541615 C20.6318783,18.4174427 21.4374641,17.9511159 22.1961705,17.462583 C23.8764275,16.3991604 25.3741015,15.2284087 26.6423131,14.0107775 C28.2966631,12.440317 29.5661084,10.7946027 30.3741615,9.1970015 C31.3635639,7.23916899 31.6596445,5.36275862 31.0958578,3.79106447 L31.1365689,3.76885843 Z" id="Path" fill="#82D7FF" fill-rule="nonzero"></path><path d="M31.1365689,3.76885843 C31.1365689,3.76885843 34.4983166,10.1814693 34.5982437,10.3739216 C35.480317,12.056646 35.2459199,14.1625187 34.1319169,16.3683187 C33.3238638,17.9659199 32.0556522,19.6116342 30.4000685,21.1820947 C29.1330906,22.3997259 27.6341829,23.5704776 25.9539259,24.6339002 C25.1952195,25.1224331 24.3896338,25.5887599 23.5556736,26.0254787 C22.7217134,26.4621975 21.8803513,26.8594389 21.0476248,27.2060998 C19.2168601,27.9820775 17.4021332,28.5495652 15.6799315,28.8986935 C13.4469908,29.366254 11.3719597,29.4723495 9.59794389,29.2280831 C7.15034483,28.8900578 5.28503748,27.8846177 4.40296423,26.2018933 C4.30180338,26.009441 0.941289355,19.5968302 0.941289355,19.5968302 L0.983234097,19.5746241 C1.95413151,20.9316599 3.66646391,21.7569844 5.84018848,22.0567659 C7.61420433,22.3010323 9.68923538,22.1949368 11.9221761,21.7273763 C13.6443778,21.378248 15.4591047,20.811994 17.2898694,20.0347826 C18.1238295,19.6893553 18.963958,19.2921139 19.7979182,18.8541615 C20.6318783,18.4174427 21.4374641,17.9511159 22.1961705,17.462583 C23.8764275,16.3991604 25.3741015,15.2284087 26.6423131,14.0107775 C28.2966631,12.440317 29.5661084,10.7946027 30.3741615,9.1970015 C31.3635639,7.23916899 31.6596445,5.36275862 31.0958578,3.79106447 L31.1365689,3.76885843 Z" id="Path" stroke="#1969FF" stroke-width="2.06556882"></path><path d="M30.8392547,3.20260441 C30.9379482,3.39135575 31.0218377,3.5875091 31.0946241,3.79106447 C31.6584108,5.36275862 31.3623303,7.23916899 30.3729278,9.1970015 C29.5648747,10.7946027 28.2966631,12.440317 26.6410795,14.0107775 C25.3741015,15.2284087 23.8751938,16.3991604 22.1949368,17.462583 C21.4362305,17.9511159 20.6306447,18.4174427 19.7966845,18.8541615 C18.9627244,19.2908803 18.1213622,19.6881217 17.2886357,20.0347826 C15.4578711,20.8107603 13.6431441,21.378248 11.9209424,21.7273763 C9.68800171,22.1949368 7.61297066,22.3010323 5.83895481,22.0567659 C3.66646391,21.7569844 1.95413151,20.9316599 0.982000428,19.5746241 C0.856166203,19.3994431 0.742668666,19.2193275 0.643975155,19.0305761 C-1.59513386,14.7583808 3.34817734,7.7499079 11.6853116,3.38025273 C20.0224459,-0.989402442 28.6001456,-1.06959092 30.8392547,3.20260441 Z" id="Path" fill="#FFFFFF" fill-rule="nonzero"></path><path d="M30.8392547,3.20260441 C30.9379482,3.39135575 31.0218377,3.5875091 31.0946241,3.79106447 C31.6584108,5.36275862 31.3623303,7.23916899 30.3729278,9.1970015 C29.5648747,10.7946027 28.2966631,12.440317 26.6410795,14.0107775 C25.3741015,15.2284087 23.8751938,16.3991604 22.1949368,17.462583 C21.4362305,17.9511159 20.6306447,18.4174427 19.7966845,18.8541615 C18.9627244,19.2908803 18.1213622,19.6881217 17.2886357,20.0347826 C15.4578711,20.8107603 13.6431441,21.378248 11.9209424,21.7273763 C9.68800171,22.1949368 7.61297066,22.3010323 5.83895481,22.0567659 C3.66646391,21.7569844 1.95413151,20.9316599 0.982000428,19.5746241 C0.856166203,19.3994431 0.742668666,19.2193275 0.643975155,19.0305761 C-1.59513386,14.7583808 3.34817734,7.7499079 11.6853116,3.38025273 C20.0224459,-0.989402442 28.6001456,-1.06959092 30.8392547,3.20260441 Z" id="Path" stroke="#1969FF" stroke-width="2.06556882"></path></g></g></g></g></g></svg> 