<?xml version="1.0" encoding="UTF-8" standalone="no"?>
<!DOCTYPE svg PUBLIC "-//W3C//DTD SVG 1.1//EN" "http://www.w3.org/Graphics/SVG/1.1/DTD/svg11.dtd">
<svg width="100%" height="100%" viewBox="0 0 48 48" version="1.1" xmlns="http://www.w3.org/2000/svg" xmlns:xlink="http://www.w3.org/1999/xlink" xml:space="preserve" xmlns:serif="http://www.serif.com/" style="fill-rule:evenodd;clip-rule:evenodd;stroke-linejoin:round;stroke-miterlimit:2;">
    <path d="M0,24C0,10.745 10.745,0 24,0C37.255,0 48,10.745 48,24C48,37.255 37.255,48 24,48C10.745,48 0,37.255 0,24Z" style="fill:rgb(0,106,227);fill-rule:nonzero;"/>
    <rect x="23.009" y="14.151" width="2.174" height="19.968" style="fill:white;fill-rule:nonzero;"/>
    <path d="M34.076,20.803L27.362,22.584L25.864,15.615L27.861,15.163L28.648,18.466C28.648,18.466 30.462,15.49 28.043,12.408C26.618,10.824 25.941,10.757 24.343,10.507C22.937,10.306 19.668,10.781 18.694,14.597C18.281,17.055 18.747,18.874 21.914,21.255L21.737,23.904C21.737,23.904 18.2,21.413 17.288,19.666C16.582,18.283 15.373,15.552 17.556,11.751C18.732,9.85 21.051,8.026 25.135,8.218C27.189,8.304 32.205,10.815 31.427,16.68C31.293,17.779 30.722,19.243 30.722,19.243L33.476,18.629L34.076,20.803Z" style="fill:white;fill-rule:nonzero;"/>
    <path d="M30.242,36.427C29.013,38.295 26.647,40.056 22.572,39.759C20.518,39.619 15.574,36.975 16.506,31.133C16.669,30.039 17.278,28.594 17.278,28.594L14.509,29.131L13.967,26.947L20.729,25.344L22.044,32.352L20.033,32.751L19.332,29.424C19.332,29.424 17.441,32.347 19.774,35.496C21.156,37.119 21.828,37.2 23.426,37.493C24.823,37.733 28.106,37.339 29.181,33.552C29.656,31.109 29.239,29.275 26.138,26.808L26.388,24.163C26.388,24.163 29.858,26.746 30.722,28.517C31.384,29.923 32.522,32.688 30.242,36.427Z" style="fill:white;fill-rule:nonzero;"/>
</svg>
